<svg xmlns="http://www.w3.org/2000/svg" viewBox="0 0 280.931 42.633"><path d="M8.964 42.633H0V.917A85.887 85.887 0 0112.07 0C22.8 0 29.5 4.941 29.5 14.893c0 10.447-7.835 14.752-17.081 14.752-1.13 0-2.612-.07-3.459-.141zm0-20.752c.565.07 1.835.141 2.894.141 5.435 0 8.682-2.188 8.682-7.129 0-4.729-3.317-6.988-8.541-6.988a21.962 21.962 0 00-3.035.212zM155.429 34.8v7.835h-27.174V.706h26.751v7.835h-17.928v9.175h16.446v7.694h-16.446v9.39zM159.171.706h8.964V34.8h16.446v7.835h-25.41zm28.729 0h8.964V34.8h16.446v7.835H187.9zM243.8 34.8v7.835h-27.171V.706h26.751v7.835h-17.929v9.175H241.9v7.694h-16.449v9.39zm12.638 7.833h-8.893V.847A85.3 85.3 0 01259.474 0c10.869 0 17.5 4.729 17.5 14.117A13.255 13.255 0 01269 26.54l11.929 16.093h-10.586L260.32 28.516h-3.882zm0-21.458h3.036c5.081 0 8.4-1.906 8.4-6.776 0-4.517-3.247-6.635-8.4-6.635-.848 0-2.33.071-3.036.141zm-201.929.348A23.617 23.617 0 0159.7 6.61C57 2.213 51.547 0 44.116 0a85.3 85.3 0 00-11.928.847v41.786h8.893V28.516h3.882l10.023 14.117h10.588l-1.189-1.844a22.933 22.933 0 01-9.876-19.266zm-10.393-.348h-3.035V7.905c.706-.07 2.188-.141 3.035-.141 5.153 0 8.4 2.118 8.4 6.635 0 4.87-3.316 6.776-8.4 6.776zM108.137 0a85.887 85.887 0 00-12.07.917v5.211a23.592 23.592 0 015.589 15.4 23.28 23.28 0 01-5.589 15.438v5.672h8.964V29.5c.847.071 2.329.141 3.459.141 9.247 0 17.081-4.3 17.081-14.752C125.571 4.941 118.866 0 108.137 0zm-.212 22.022c-1.058 0-2.329-.071-2.894-.141V8.117a21.962 21.962 0 013.035-.212c5.224 0 8.541 2.259 8.541 6.988 0 4.941-3.247 7.129-8.682 7.129z" fill="#fff"/><path d="M67.244 21.663c0 6.5 4.385 10.962 10.659 10.962s10.659-4.46 10.659-10.962c0-6.047-4.082-11.112-10.659-11.112s-10.659 5.065-10.659 11.112z" fill="#6f92cb"/></svg>